<?xml version="1.0" encoding="UTF-8" standalone="no"?>
<svg
   width="24px"
   height="24px"
   viewBox="0 0 24 24"
   fill="none"
   color="#000000"
   stroke-width="1.5"
   version="1.1"
   id="svg4"
   sodipodi:docname="download.svg"
   inkscape:version="1.2.2 (732a01da63, 2022-12-09)"
   xmlns:inkscape="http://www.inkscape.org/namespaces/inkscape"
   xmlns:sodipodi="http://sodipodi.sourceforge.net/DTD/sodipodi-0.dtd"
   xmlns="http://www.w3.org/2000/svg"
   xmlns:svg="http://www.w3.org/2000/svg">
  <defs
     id="defs8" />
  <sodipodi:namedview
     id="namedview6"
     pagecolor="#ffffff"
     bordercolor="#000000"
     borderopacity="0.25"
     inkscape:showpageshadow="2"
     inkscape:pageopacity="0.0"
     inkscape:pagecheckerboard="0"
     inkscape:deskcolor="#d1d1d1"
     showgrid="false"
     inkscape:zoom="36.541667"
     inkscape:cx="11.931585"
     inkscape:cy="12.013683"
     inkscape:window-width="1920"
     inkscape:window-height="1057"
     inkscape:window-x="-8"
     inkscape:window-y="-8"
     inkscape:window-maximized="1"
     inkscape:current-layer="svg4" />
  <path
     fill-rule="evenodd"
     clip-rule="evenodd"
     d="M2.25 3.6C2.25 2.85441 2.85442 2.25 3.6 2.25H20.4C21.1456 2.25 21.75 2.85442 21.75 3.6V20.4C21.75 21.1456 21.1456 21.75 20.4 21.75H3.6C2.85441 21.75 2.25 21.1456 2.25 20.4V3.6ZM5.25 18C5.25 17.5858 5.58579 17.25 6 17.25L18 17.25C18.4142 17.25 18.75 17.5858 18.75 18C18.75 18.4142 18.4142 18.75 18 18.75L6 18.75C5.58579 18.75 5.25 18.4142 5.25 18ZM16.0303 11.0303L12.5303 14.5303C12.2374 14.8232 11.7626 14.8232 11.4697 14.5303L7.96967 11.0303C7.67678 10.7374 7.67678 10.2626 7.96967 9.96967C8.26256 9.67678 8.73744 9.67678 9.03033 9.96967L11.25 12.1893V6C11.25 5.58579 11.5858 5.25 12 5.25C12.4142 5.25 12.75 5.58579 12.75 6V12.1893L14.9697 9.96967C15.2626 9.67678 15.7374 9.67678 16.0303 9.96967C16.3232 10.2626 16.3232 10.7374 16.0303 11.0303Z"
     fill="#000000"
     id="path2"
     style="fill:#ffffff" />
</svg>
